<?xml version="1.0" encoding="UTF-8"?>
<svg width="22px" height="22px" viewBox="0 0 32 22" version="1.1" xmlns="http://www.w3.org/2000/svg" xmlns:xlink="http://www.w3.org/1999/xlink">
    <!-- Generator: Sketch 48.2 (47327) - http://www.bohemiancoding.com/sketch -->
    <title>back3</title>
    <desc>Created with Sketch.</desc>
    <defs></defs>
    <g id="search-result-page_passenger-details" stroke="none" stroke-width="1" fill="none" fill-rule="evenodd" transform="translate(-153.000000, -1443.000000)">
        <g id="Group-47" transform="translate(150.000000, 1405.000000)" fill="#000000">
            <g id="Group-54" transform="translate(3.000000, 38.000000)">
                <path d="M21.0687712,0.330860685 C20.6425273,-0.110286895 19.9321207,-0.110286895 19.4919667,0.330860685 C19.0657228,0.75710463 19.0657228,1.46651763 19.4919667,1.891768 L27.4872698,9.8870711 L1.10386253,9.8870711 C0.48883921,9.88806467 0,10.3769039 0,10.9919272 C0,11.6069505 0.48883921,12.1116869 1.10386253,12.1116869 L27.4872698,12.1116869 L19.4919667,20.09308 C19.0657228,20.533234 19.0657228,21.2436406 19.4919667,21.6698845 C19.9321207,22.1100385 20.6435209,22.1100385 21.0687712,21.6698845 L30.9568359,11.7808262 C31.3979835,11.3545823 31.3979835,10.6451693 30.9568359,10.2199189 L21.0687712,0.330860685 Z" id="Fill-1" transform="translate(15.643848, 11.000000) scale(-1, 1) translate(-15.643848, -11.000000) "></path>
            </g>
        </g>
    </g>
</svg>